<svg width="98" height="98" viewBox="0 0 98 98" fill="none" xmlns="http://www.w3.org/2000/svg">
<path d="M42.14 57.82L31.4825 47.1625C30.5842 46.2642 29.4817 45.815 28.175 45.815C26.8683 45.815 25.725 46.305 24.745 47.285C23.8467 48.1833 23.3975 49.3267 23.3975 50.715C23.3975 52.1033 23.8467 53.2467 24.745 54.145L38.71 68.11C39.6083 69.0083 40.7517 69.4575 42.14 69.4575C43.5283 69.4575 44.6717 69.0083 45.57 68.11L73.3775 40.3025C74.2758 39.4042 74.725 38.3017 74.725 36.995C74.725 35.6883 74.235 34.545 73.255 33.565C72.3567 32.6667 71.2133 32.2175 69.825 32.2175C68.4367 32.2175 67.2933 32.6667 66.395 33.565L42.14 57.82ZM49 98C42.2217 98 35.8517 96.7129 29.89 94.1388C23.9283 91.5679 18.7425 88.0775 14.3325 83.6675C9.9225 79.2575 6.43207 74.0717 3.8612 68.11C1.28707 62.1483 0 55.7783 0 49C0 42.2217 1.28707 35.8517 3.8612 29.89C6.43207 23.9283 9.9225 18.7425 14.3325 14.3325C18.7425 9.9225 23.9283 6.43043 29.89 3.8563C35.8517 1.28543 42.2217 0 49 0C55.7783 0 62.1483 1.28543 68.11 3.8563C74.0717 6.43043 79.2575 9.9225 83.6675 14.3325C88.0775 18.7425 91.5679 23.9283 94.1388 29.89C96.7129 35.8517 98 42.2217 98 49C98 55.7783 96.7129 62.1483 94.1388 68.11C91.5679 74.0717 88.0775 79.2575 83.6675 83.6675C79.2575 88.0775 74.0717 91.5679 68.11 94.1388C62.1483 96.7129 55.7783 98 49 98Z" fill="#FFE4C9" fill-opacity="0.34"/>
</svg>
